# xmcd
# 
# Track frame offsets:
#     150
#     12557
#     35284
#     62137
#     75124
#     90095
#     108255
#     125584
#     140360
#     159948
#     171802
#     185004
#     197741
#     211020
#     227672
#     240498
# 
# Disc length: 3417
# 
# Revision: 4
# Processed by: cddbd v1.5.2PL0 Copyright (c) Steve Scherf et al.
# Submitted via: fre:ac v1.0.31
# 
DISCID=be0d5710
DTITLE=Gordon Lightfoot - Gordon Lightfoot — The Complete Singles 1970-1980 Disc 2
DYEAR=1975
DGENRE=Rock/Pop
TTITLE0=Rainy Day People [Lightfoot 1975]
TTITLE1=Cherokee Bend [Lightfoot 1975]
TTITLE2=The Wreck of the Edmund Fitzgerald [Lightfoot 1976]
TTITLE3=The House You Live In [Lightfoot 1976]
TTITLE4=Race Among the Ruins [Lightfoot 1976]
TTITLE5=Protocol [Lightfoot 1977]
TTITLE6=The Circle Is Small (I Can See It in Your Eyes) [Lightfoot 1977]
TTITLE7=Sweet Guinevere [Lightfoot 1978]
TTITLE8=Daylight Katy [Lightfoot 1978]
TTITLE9=Hangdog Hotel Room [Lightfoot 1978]
TTITLE10=Dreamland [Lightfoot 1978]
TTITLE11=Songs the Minstrel Sang [Lightfoot 1978]
TTITLE12=Dream Street Rose [Lightfoot 1980]
TTITLE13=Make Way for the Lady [Lightfoot 1980]
TTITLE14=If You Need Me [Lightfoot 1980]
TTITLE15=Mister Rock of Ages [Lightfoot 1980]
EXTD=
EXTT0=
EXTT1=
EXTT2=
EXTT3=
EXTT4=
EXTT5=
EXTT6=
EXTT7=
EXTT8=
EXTT9=
EXTT10=
EXTT11=
EXTT12=
EXTT13=
EXTT14=
EXTT15=
PLAYORDER=
